<?xml version="1.0" standalone="no"?>
<!DOCTYPE svg PUBLIC "-//W3C//DTD SVG 20010904//EN"
 "http://www.w3.org/TR/2001/REC-SVG-20010904/DTD/svg10.dtd">
<svg version="1.0" xmlns="http://www.w3.org/2000/svg"
 width="512.000000pt" height="512.000000pt" viewBox="0 0 512.000000 512.000000"
 preserveAspectRatio="xMidYMid meet">
<metadata>
Created by potrace 1.14, written by Peter Selinger 2001-2017
</metadata>
<g transform="translate(0.000000,512.000000) scale(0.100000,-0.100000)"
fill="#000000" stroke="none">
<path d="M2440 4782 c-49 -13 -266 -128 -880 -467 -687 -380 -823 -459 -875
-507 -140 -130 -188 -330 -123 -506 24 -65 74 -145 115 -184 15 -14 394 -283
841 -596 521 -366 833 -579 870 -594 48 -19 76 -23 172 -23 101 0 122 3 175
25 71 30 1645 1132 1712 1198 89 89 134 201 134 334 0 145 -51 261 -156 355
-76 69 -1653 941 -1745 965 -82 21 -157 21 -240 0z m185 -321 c33 -15 1307
-717 1529 -843 67 -38 94 -68 106 -122 11 -50 -4 -100 -43 -141 -29 -30 -1452
-1035 -1569 -1108 -41 -25 -55 -29 -100 -25 -52 4 -75 19 -856 568 -739 519
-803 567 -823 607 -29 60 -20 122 24 168 21 22 303 183 787 451 415 229 775
428 799 441 53 28 92 29 146 4z"/>
<path d="M655 2646 c-94 -41 -125 -173 -57 -246 41 -44 1705 -1208 1769 -1237
125 -58 285 -53 407 12 34 17 439 297 901 622 762 535 842 594 863 634 57 107
-22 229 -147 229 -48 0 -5 29 -1013 -679 -402 -283 -750 -522 -774 -530 -33
-12 -51 -13 -81 -5 -23 6 -362 238 -881 603 -463 325 -854 596 -868 601 -35
14 -83 12 -119 -4z"/>
<path d="M639 1837 c-18 -12 -44 -38 -57 -57 -31 -46 -27 -124 9 -169 30 -39
1682 -1200 1764 -1241 119 -59 258 -62 389 -9 36 15 377 248 916 628 797 559
861 606 881 647 28 59 20 121 -22 168 -38 44 -78 60 -137 54 -43 -4 -73 -23
-282 -170 -1226 -861 -1460 -1024 -1496 -1037 -34 -12 -49 -13 -81 -3 -24 7
-360 236 -839 573 -439 309 -826 579 -858 600 -72 48 -133 53 -187 16z"/>
</g>
</svg>
